<svg width="41" height="43" viewBox="0 0 41 43" fill="none" xmlns="http://www.w3.org/2000/svg">
<path d="M12.299 8.84543C12.4673 8.67884 12.5993 8.47917 12.6867 8.25902C12.774 8.03888 12.8148 7.80302 12.8064 7.56633C12.7981 7.32964 12.7408 7.09724 12.6381 6.88379C12.5355 6.67035 12.3898 6.48048 12.2101 6.32617C11.3059 5.55452 10.1572 5.12886 8.96853 5.125L8.70667 5.13221H8.66823C5.95759 5.29717 3.84353 7.65146 3.84913 10.4902C3.84913 12.0117 4.48976 12.8173 4.99585 13.4619C5.13786 13.6422 5.3159 13.7908 5.51858 13.8983C5.72127 14.0059 5.94415 14.07 6.173 14.0865C6.19382 14.0865 6.22905 14.0905 6.33316 14.0905C6.53901 14.0902 6.74267 14.0483 6.9319 13.9672C7.12112 13.8862 7.29199 13.7677 7.43423 13.6189L12.299 8.84543Z" fill="white"/>
<path d="M32.3347 5.13398L32.0729 5.12598H32.0313C30.8415 5.12907 29.6915 5.55478 28.7865 6.32715C28.6071 6.48145 28.4615 6.67122 28.3591 6.88452C28.2566 7.09782 28.1994 7.33003 28.191 7.56652C28.1827 7.80302 28.2234 8.03868 28.3105 8.25867C28.3977 8.47867 28.5295 8.67823 28.6976 8.8448L33.5639 13.6215C33.7065 13.7708 33.8778 13.8897 34.0677 13.9709C34.2575 14.0521 34.4618 14.094 34.6682 14.0939C34.7707 14.0939 34.806 14.0939 34.8284 14.0899C35.0571 14.0732 35.2798 14.0091 35.4824 13.9016C35.6849 13.794 35.8628 13.6454 36.0047 13.4653C36.514 12.8207 37.1482 12.0175 37.1514 10.4936C37.1563 7.65164 35.0422 5.29734 32.3347 5.13398Z" fill="white"/>
<path d="M20.5055 7.6875C12.7379 7.6875 6.41176 14.0097 6.41176 21.7812C6.40901 25.0763 7.56592 28.2672 9.67975 30.7948L6.78733 33.6881C6.66552 33.8064 6.56846 33.9478 6.50179 34.104C6.43512 34.2602 6.40016 34.4281 6.39896 34.5979C6.39775 34.7677 6.43033 34.9361 6.49478 35.0932C6.55923 35.2504 6.65428 35.3931 6.7744 35.5132C6.89451 35.6332 7.0373 35.7282 7.19445 35.7926C7.35161 35.857 7.51999 35.8895 7.68982 35.8882C7.85965 35.8869 8.02753 35.8519 8.18369 35.7852C8.33986 35.7184 8.4812 35.6213 8.5995 35.4994L11.4919 32.607C14.0209 34.7185 17.2109 35.8751 20.5055 35.8751C23.8001 35.8751 26.9901 34.7185 29.5191 32.607L32.4123 35.4994C32.5306 35.6213 32.672 35.7184 32.8281 35.7852C32.9843 35.8519 33.1522 35.8869 33.322 35.8882C33.4918 35.8895 33.6602 35.857 33.8174 35.7926C33.9745 35.7282 34.1173 35.6332 34.2374 35.5132C34.3575 35.3931 34.4526 35.2504 34.517 35.0932C34.5815 34.9361 34.6141 34.7677 34.6129 34.5979C34.6117 34.4281 34.5767 34.2602 34.51 34.104C34.4434 33.9478 34.3463 33.8064 34.2245 33.6881L31.3313 30.7948C33.4455 28.2674 34.6024 25.0764 34.5993 21.7812C34.5993 14.0137 28.2771 7.6875 20.5055 7.6875ZM21.7868 21.7812C21.7868 22.1211 21.6518 22.447 21.4115 22.6872C21.1712 22.9275 20.8453 23.0625 20.5055 23.0625H14.0993C13.7595 23.0625 13.4336 22.9275 13.1933 22.6872C12.953 22.447 12.818 22.1211 12.818 21.7812C12.818 21.4414 12.953 21.1155 13.1933 20.8753C13.4336 20.635 13.7595 20.5 14.0993 20.5H19.2243V12.8125C19.2243 12.4727 19.3593 12.1468 19.5995 11.9065C19.8398 11.6662 20.1657 11.5312 20.5055 11.5312C20.8453 11.5312 21.1712 11.6662 21.4115 11.9065C21.6518 12.1468 21.7868 12.4727 21.7868 12.8125V21.7812Z" fill="white"/>
</svg>
