<svg width="27" height="21" viewBox="0 0 27 21" fill="none" xmlns="http://www.w3.org/2000/svg">
<path d="M10.196 9.83319C12.7512 9.83319 14.8226 7.74387 14.8226 5.1666C14.8226 2.58932 12.7512 0.5 10.196 0.5C7.64076 0.5 5.56934 2.58932 5.56934 5.1666C5.56934 7.74387 7.64076 9.83319 10.196 9.83319Z" stroke="#FAB12F" stroke-miterlimit="10" stroke-linecap="round" stroke-linejoin="round"/>
<path d="M13.3053 9.8335C15.0731 12.1514 16.2394 15.714 16.3622 19.7488C16.3745 20.1566 16.178 20.5 15.9448 20.5H0.930233C0.684698 20.5 0.488269 20.1566 0.500546 19.7488C0.63559 15.714 1.8019 12.1514 3.58203 9.8335" stroke="#FAB12F" stroke-miterlimit="10" stroke-linecap="round" stroke-linejoin="round"/>
<path d="M20.1102 13.8334C22.3005 13.8334 24.0759 12.0425 24.0759 9.83343C24.0759 7.62436 22.3005 5.8335 20.1102 5.8335C17.9201 5.8335 16.1445 7.62436 16.1445 9.83343C16.1445 12.0425 17.9201 13.8334 20.1102 13.8334Z" stroke="#FAB12F" stroke-miterlimit="10" stroke-linecap="round" stroke-linejoin="round"/>
<path d="M24.3486 13.8325C25.5853 15.3732 26.3918 17.4347 26.4993 19.6914C26.5172 19.9952 26.3201 20.2122 26.0692 20.2122H19.1152" stroke="#FAB12F" stroke-miterlimit="10" stroke-linecap="round" stroke-linejoin="round"/>
</svg>
