<svg width="15" height="12" viewBox="0 0 15 12" fill="none" xmlns="http://www.w3.org/2000/svg">
<path d="M3.62397 9.62196C4.00181 9.37023 4.49094 9.30596 4.93028 9.45057C5.70646 9.70765 6.57635 9.85494 7.5019 9.85494C11.1543 9.85494 13.5941 7.69917 13.5941 5.57019C13.5941 3.4412 11.1543 1.28543 7.5019 1.28543C3.8495 1.28543 1.40969 3.4412 1.40969 5.57019C1.40969 6.42714 1.77288 7.25195 2.45533 7.95894C2.70721 8.2187 2.83023 8.56148 2.80094 8.90962C2.75994 9.39433 2.63399 9.83888 2.46997 10.2325C2.96789 10.021 3.38087 9.78532 3.62397 9.62464V9.62196ZM0.624734 10.7092C0.677455 10.6369 0.727247 10.5646 0.77411 10.4923C1.067 10.0478 1.34525 9.46396 1.4009 8.80786C0.522221 7.89467 0.00379753 6.77795 0.00379753 5.57019C0.00379753 2.49319 3.36037 0 7.5019 0C11.6434 0 15 2.49319 15 5.57019C15 8.64718 11.6434 11.1404 7.5019 11.1404C6.41526 11.1404 5.38427 10.969 4.45287 10.661C4.10432 10.894 3.53611 11.2127 2.86245 11.4805C2.42018 11.6572 1.9164 11.8179 1.39505 11.9116C1.37162 11.917 1.34818 11.9197 1.32475 11.925C1.19588 11.9464 1.06993 11.9652 0.938131 11.9759C0.932273 11.9759 0.923487 11.9786 0.917629 11.9786C0.768252 11.992 0.618876 12 0.4695 12C0.279118 12 0.10924 11.8956 0.0360159 11.7349C-0.0372077 11.5742 0.00379752 11.3921 0.1356 11.2689C0.255687 11.1564 0.364058 11.0359 0.466571 10.9074C0.516363 10.8458 0.563226 10.7842 0.60716 10.7226C0.610089 10.7173 0.613018 10.7146 0.615947 10.7092H0.624734Z" fill="#6B7280"/>
</svg>
