<svg width="20" height="18" viewBox="0 0 20 18" fill="none" xmlns="http://www.w3.org/2000/svg">
<path d="M4.82831 14.0352C5.33221 13.668 5.98456 13.5742 6.57049 13.7852C7.60565 14.1602 8.76581 14.375 10.0002 14.375C14.8713 14.375 18.1252 11.2305 18.1252 8.125C18.1252 5.01953 14.8713 1.875 10.0002 1.875C5.12909 1.875 1.87518 5.01953 1.87518 8.125C1.87518 9.375 2.35956 10.5781 3.26971 11.6094C3.60565 11.9883 3.76971 12.4883 3.73065 12.9961C3.67596 13.7031 3.50799 14.3516 3.28924 14.9258C3.95331 14.6172 4.50409 14.2734 4.82831 14.0391V14.0352ZM0.828307 15.6211C0.898619 15.5156 0.965026 15.4102 1.02753 15.3047C1.41815 14.6562 1.78924 13.8047 1.86346 12.8477C0.691588 11.5156 0.00018184 9.88672 0.00018184 8.125C0.00018184 3.63672 4.47675 0 10.0002 0C15.5236 0 20.0002 3.63672 20.0002 8.125C20.0002 12.6133 15.5236 16.25 10.0002 16.25C8.55096 16.25 7.17596 16 5.93378 15.5508C5.46893 15.8906 4.71112 16.3555 3.81268 16.7461C3.22284 17.0039 2.55096 17.2383 1.85565 17.375C1.8244 17.3828 1.79315 17.3867 1.7619 17.3945C1.59003 17.4258 1.42206 17.4531 1.24628 17.4688C1.23846 17.4688 1.22674 17.4727 1.21893 17.4727C1.01971 17.4922 0.820494 17.5039 0.621276 17.5039C0.367369 17.5039 0.140807 17.3516 0.0431506 17.1172C-0.0545057 16.8828 0.000181831 16.6172 0.175963 16.4375C0.336119 16.2734 0.480651 16.0977 0.617369 15.9102C0.683776 15.8203 0.746276 15.7305 0.804869 15.6406C0.808776 15.6328 0.812682 15.6289 0.816588 15.6211H0.828307Z" fill="#4B5563"/>
</svg>
