<svg width="44" height="43" viewBox="0 0 44 43" fill="none" xmlns="http://www.w3.org/2000/svg">
<path d="M9.625 33.5938C7.2875 33.5938 5.5 31.8469 5.5 29.5625V13.4375C5.5 11.1531 7.2875 9.40625 9.625 9.40625C11.9625 9.40625 13.75 11.1531 13.75 13.4375V29.5625C13.75 31.8469 11.9625 33.5938 9.625 33.5938Z" fill="white"/>
<path d="M34.375 33.5938C32.0375 33.5938 30.25 31.8469 30.25 29.5625V13.4375C30.25 11.1531 32.0375 9.40625 34.375 9.40625C36.7125 9.40625 38.5 11.1531 38.5 13.4375V29.5625C38.5 31.8469 36.7125 33.5938 34.375 33.5938Z" fill="white"/>
<path d="M31.625 22.8438H12.375C11.55 22.8438 11 22.3063 11 21.5C11 20.6937 11.55 20.1562 12.375 20.1562H31.625C32.45 20.1562 33 20.6937 33 21.5C33 22.3063 32.45 22.8438 31.625 22.8438Z" fill="white"/>
<path d="M2.75 13.7061C1.1 14.2436 0 15.7217 0 17.4686V25.5311C0 27.2779 1.1 28.7561 2.75 29.2936V13.7061Z" fill="white"/>
<path d="M41.25 13.7061V29.2936C42.9 28.7561 44 27.2779 44 25.5311V17.4686C44 15.7217 42.9 14.2436 41.25 13.7061Z" fill="white"/>
</svg>
