<svg width="16" height="14" viewBox="0 0 16 14" fill="none" xmlns="http://www.w3.org/2000/svg">
<g clip-path="url(#clip0_452_1438)">
<path d="M7.87529 0.875C5.66592 0.875 3.89678 1.88125 2.60889 3.07891C1.3292 4.26562 0.47334 5.6875 0.0686523 6.66367C-0.021582 6.87969 -0.021582 7.12031 0.0686523 7.33633C0.47334 8.3125 1.3292 9.73438 2.60889 10.9211C3.89678 12.1187 5.66592 13.125 7.87529 13.125C10.0847 13.125 11.8538 12.1187 13.1417 10.9211C14.4214 9.73164 15.2772 8.3125 15.6847 7.33633C15.7749 7.12031 15.7749 6.87969 15.6847 6.66367C15.2772 5.6875 14.4214 4.26562 13.1417 3.07891C11.8538 1.88125 10.0847 0.875 7.87529 0.875ZM3.93779 7C3.93779 5.95571 4.35264 4.95419 5.09106 4.21577C5.82948 3.47734 6.831 3.0625 7.87529 3.0625C8.91958 3.0625 9.9211 3.47734 10.6595 4.21577C11.398 4.95419 11.8128 5.95571 11.8128 7C11.8128 8.04429 11.398 9.04581 10.6595 9.78423C9.9211 10.5227 8.91958 10.9375 7.87529 10.9375C6.831 10.9375 5.82948 10.5227 5.09106 9.78423C4.35264 9.04581 3.93779 8.04429 3.93779 7ZM7.87529 5.25C7.87529 6.21523 7.09053 7 6.12529 7C5.93115 7 5.74521 6.96719 5.57021 6.90977C5.41982 6.86055 5.24482 6.95352 5.25029 7.11211C5.2585 7.30078 5.28584 7.48945 5.33779 7.67812C5.7124 9.07812 7.15342 9.90938 8.55342 9.53477C9.95342 9.16016 10.7847 7.71914 10.4101 6.31914C10.1065 5.18438 9.10303 4.42148 7.9874 4.375C7.82881 4.36953 7.73584 4.5418 7.78506 4.69492C7.84248 4.86992 7.87529 5.05586 7.87529 5.25Z" fill="white"/>
</g>
<defs>
<clipPath id="clip0_452_1438">
<path d="M0 0H15.75V14H0V0Z" fill="white"/>
</clipPath>
</defs>
</svg>
