<svg width="64" height="64" viewBox="0 0 64 64" fill="none" xmlns="http://www.w3.org/2000/svg">
<path d="M32 0C49.6731 0 64 14.3269 64 32C64 49.6731 49.6731 64 32 64C14.3269 64 0 49.6731 0 32C0 14.3269 14.3269 0 32 0Z" fill="#E5E7EB"/>
<path d="M32 0C49.6731 0 64 14.3269 64 32C64 49.6731 49.6731 64 32 64C14.3269 64 0 49.6731 0 32C0 14.3269 14.3269 0 32 0Z" stroke="#E5E7EB"/>
<path d="M41.5 44.5H23.5V19.5H41.5V44.5Z" stroke="#E5E7EB"/>
<path d="M48.5 45.5H16.5V17.5H48.5V45.5Z" stroke="#E5E7EB"/>
<path d="M25.3889 19.25C23.4278 19.25 21.8333 20.8195 21.8333 22.75V35C21.8333 36.9305 23.4278 38.5 25.3889 38.5H44.9444C46.9056 38.5 48.5 36.9305 48.5 35V22.75C48.5 20.8195 46.9056 19.25 44.9444 19.25H25.3889ZM38.5 25.0852L43.8333 32.9602C44.1056 33.3648 44.1333 33.8789 43.9 34.3055C43.6667 34.732 43.2167 35 42.7222 35H34.7222H32.0556H27.6111C27.1 35 26.6333 34.7102 26.4111 34.2562C26.1889 33.8023 26.25 33.2609 26.5722 32.8672L30.1278 28.4922C30.3833 28.1805 30.7611 28 31.1667 28C31.5722 28 31.9556 28.1805 32.2056 28.4922L33.1667 29.6734L36.2778 25.0797C36.5278 24.7188 36.9444 24.5 37.3889 24.5C37.8333 24.5 38.25 24.7187 38.5 25.0852ZM27.1667 24.5C27.1667 24.0359 27.354 23.5908 27.6874 23.2626C28.0208 22.9344 28.4729 22.75 28.9444 22.75C29.4159 22.75 29.8681 22.9344 30.2015 23.2626C30.5349 23.5908 30.7222 24.0359 30.7222 24.5C30.7222 24.9641 30.5349 25.4092 30.2015 25.7374C29.8681 26.0656 29.4159 26.25 28.9444 26.25C28.4729 26.25 28.0208 26.0656 27.6874 25.7374C27.354 25.4092 27.1667 24.9641 27.1667 24.5ZM19.1667 24.0625C19.1667 23.3352 18.5722 22.75 17.8333 22.75C17.0944 22.75 16.5 23.3352 16.5 24.0625V36.3125C16.5 40.4195 19.8833 43.75 24.0556 43.75H41.8333C42.5722 43.75 43.1667 43.1648 43.1667 42.4375C43.1667 41.7102 42.5722 41.125 41.8333 41.125H24.0556C21.3556 41.125 19.1667 38.9703 19.1667 36.3125V24.0625Z" fill="#4B5563"/>
</svg>
