<svg width="40" height="40" viewBox="0 0 40 40" fill="none" xmlns="http://www.w3.org/2000/svg">
<path d="M0 20C0 8.95431 8.95431 0 20 0C31.0457 0 40 8.95431 40 20C40 31.0457 31.0457 40 20 40C8.95431 40 0 31.0457 0 20Z" fill="#FAB12F"/>
<g clip-path="url(#clip0_12_665)">
<path d="M17.9531 14.15L19.0406 16H19H16.75C16.0594 16 15.5 15.4406 15.5 14.75C15.5 14.0594 16.0594 13.5 16.75 13.5H16.8187C17.2844 13.5 17.7188 13.7469 17.9531 14.15ZM14 14.75C14 15.2 14.1094 15.625 14.3 16H13C12.4469 16 12 16.4469 12 17V19C12 19.5531 12.4469 20 13 20H27C27.5531 20 28 19.5531 28 19V17C28 16.4469 27.5531 16 27 16H25.7C25.8906 15.625 26 15.2 26 14.75C26 13.2313 24.7688 12 23.25 12H23.1812C22.1844 12 21.2594 12.5281 20.7531 13.3875L20 14.6719L19.2469 13.3906C18.7406 12.5281 17.8156 12 16.8187 12H16.75C15.2313 12 14 13.2313 14 14.75ZM24.5 14.75C24.5 15.4406 23.9406 16 23.25 16H21H20.9594L22.0469 14.15C22.2844 13.7469 22.7156 13.5 23.1812 13.5H23.25C23.9406 13.5 24.5 14.0594 24.5 14.75ZM13 21V26.5C13 27.3281 13.6719 28 14.5 28H19V21H13ZM21 28H25.5C26.3281 28 27 27.3281 27 26.5V21H21V28Z" fill="white"/>
</g>
<defs>
<clipPath id="clip0_12_665">
<rect width="16" height="16" fill="white" transform="translate(12 12)"/>
</clipPath>
</defs>
</svg>
