<svg width="29" height="30" viewBox="0 0 29 30" fill="none" xmlns="http://www.w3.org/2000/svg">
<mask id="mask0_73_76" style="mask-type:luminance" maskUnits="userSpaceOnUse" x="14" y="12" width="15" height="15">
<path d="M29 15.3323C29 14.2959 28.9063 13.3001 28.7305 12.3448H14.7965V17.9938H22.7583C22.4149 19.82 21.3733 21.3656 19.8059 22.402V26.0657H24.5869C27.3849 23.5227 28.9983 19.7794 28.9983 15.3307L29 15.3323Z" fill="white"/>
</mask>
<g mask="url(#mask0_73_76)">
<path d="M37.2196 4.23071H6.57666V34.1799H37.2196V4.23071Z" fill="#3E82F1"/>
</g>
<mask id="mask1_73_76" style="mask-type:luminance" maskUnits="userSpaceOnUse" x="1" y="17" width="24" height="13">
<path d="M14.7965 29.6048C18.7906 29.6048 22.1406 28.2976 24.5886 26.0659L19.8076 22.4022C18.4833 23.278 16.7878 23.797 14.7982 23.797C10.9454 23.797 7.68247 21.228 6.51925 17.775H1.57556V21.5588C4.01044 26.3319 9.01327 29.6048 14.7965 29.6048Z" fill="white"/>
</mask>
<g mask="url(#mask1_73_76)">
<path d="M32.8083 9.66089H-6.64429V37.719H32.8083V9.66089Z" fill="#32A753"/>
</g>
<mask id="mask2_73_76" style="mask-type:luminance" maskUnits="userSpaceOnUse" x="0" y="8" width="7" height="14">
<path d="M6.51765 17.7751C6.22192 16.8993 6.05433 15.9634 6.05433 15.0001C6.05433 14.0367 6.22192 13.1009 6.51765 12.2251V8.44128H1.57396C0.571752 10.4135 0 12.6435 0 15.0001C0 17.3566 0.571752 19.5867 1.57396 21.5589L6.51765 17.7751Z" fill="white"/>
</mask>
<g mask="url(#mask2_73_76)">
<path d="M14.7374 0.327148H-8.21814V29.673H14.7374V0.327148Z" fill="#F9BB00"/>
</g>
<mask id="mask3_73_76" style="mask-type:luminance" maskUnits="userSpaceOnUse" x="1" y="0" width="24" height="13">
<path d="M14.7965 6.203C16.9685 6.203 18.9187 6.93933 20.4516 8.38764L24.6954 4.19839C22.1324 1.84184 18.784 0.395142 14.7965 0.395142C9.01327 0.395142 4.0088 3.66805 1.57556 8.44116L6.51925 12.225C7.68247 8.77365 10.9438 6.203 14.7982 6.203H14.7965Z" fill="white"/>
</mask>
<g mask="url(#mask3_73_76)">
<path d="M32.9151 -7.71899H-6.64429V20.3391H32.9151V-7.71899Z" fill="#E74133"/>
</g>
</svg>
