<svg width="24" height="24" viewBox="0 0 24 24" fill="none" xmlns="http://www.w3.org/2000/svg">
<path d="M12.0002 3L12.6128 2.20958C12.2522 1.93014 11.7482 1.93014 11.3876 2.20958L12.0002 3ZM14.5002 19H13.5002C13.5002 19.5523 13.9479 20 14.5002 20V19ZM9.50023 19V20C10.0525 20 10.5002 19.5523 10.5002 19H9.50023ZM5.00023 17V10.1804H3.00023V17H5.00023ZM5.38766 9.3899L12.6128 3.79041L11.3876 2.20958L4.16251 7.80907L5.38766 9.3899ZM11.3876 3.79041L18.6128 9.3899L19.8379 7.80907L12.6128 2.20958L11.3876 3.79041ZM19.0002 10.1804V17H21.0002V10.1804H19.0002ZM18.0002 18H14.5002V20H18.0002V18ZM19.0002 17C19.0002 17.4997 18.9981 17.7739 18.9725 17.9641C18.9508 18.1255 18.9299 18.0704 19.0002 18L20.4144 19.4143C20.7776 19.051 20.9032 18.6138 20.9547 18.2306C21.0023 17.8761 21.0002 17.4432 21.0002 17H19.0002ZM18.0002 20C18.4433 20 18.8763 20.0022 19.2307 19.9545C19.6139 19.903 20.0512 19.7775 20.4144 19.4143L19.0002 18C19.0705 17.9297 19.1256 17.9506 18.9642 17.9723C18.774 17.9979 18.4999 18 18.0002 18V20ZM18.6128 9.3899C18.8164 9.54774 18.9187 9.62808 18.9873 9.69149C19.0417 9.74184 19.0219 9.7345 19.0002 9.69015L20.7961 8.8099C20.568 8.34458 20.1408 8.04379 19.8379 7.80907L18.6128 9.3899ZM21.0002 10.1804C21.0002 9.79714 21.0241 9.27522 20.7961 8.8099L19.0002 9.69015C18.9785 9.64581 18.9848 9.62569 18.9912 9.69958C18.9993 9.79262 19.0002 9.92265 19.0002 10.1804H21.0002ZM5.00023 10.1804C5.00023 9.92266 5.0011 9.79262 5.00921 9.69958C5.01565 9.62569 5.02197 9.64581 5.00023 9.69016L3.20436 8.8099C2.97628 9.27522 3.00023 9.79714 3.00023 10.1804H5.00023ZM4.16251 7.80907C3.85964 8.0438 3.43244 8.34458 3.20436 8.8099L5.00023 9.69016C4.9785 9.7345 4.95872 9.74184 5.01318 9.69149C5.08175 9.62808 5.184 9.54774 5.38766 9.3899L4.16251 7.80907ZM3.00023 17C3.00023 17.4432 2.99811 17.8761 3.04576 18.2306C3.09728 18.6138 3.2228 19.051 3.58602 19.4143L5.00023 18C5.07055 18.0704 5.04963 18.1255 5.02792 17.9641C5.00235 17.7739 5.00023 17.4997 5.00023 17H3.00023ZM6.00023 18C5.50056 18 5.2264 17.9979 5.03621 17.9723C4.87478 17.9506 4.92991 17.9297 5.00023 18L3.58602 19.4143C3.94923 19.7775 4.38651 19.903 4.76971 19.9545C5.12415 20.0022 5.5571 20 6.00023 20V18ZM12.0002 12.5C12.3606 12.5 12.751 12.5944 13.0251 12.8C13.2508 12.9693 13.5002 13.2856 13.5002 14.0001L15.5002 14C15.5001 12.7145 14.9994 11.7808 14.2252 11.2C13.4993 10.6557 12.6398 10.5 12.0002 10.5V12.5ZM13.5002 14.0001V19H15.5002V14L13.5002 14.0001ZM12.0002 10.5C11.3606 10.5 10.501 10.6557 9.77523 11.2C9.00094 11.7808 8.50023 12.7145 8.50023 14H10.5002C10.5002 13.2856 10.7495 12.9693 10.9752 12.8C11.2494 12.5944 11.6398 12.5 12.0002 12.5V10.5ZM8.50023 14V19H10.5002V14H8.50023ZM9.50023 18H6.00023V20H9.50023V18Z" fill="#FAB12F"/>
</svg>
