<svg width="24" height="24" viewBox="0 0 24 24" fill="none" xmlns="http://www.w3.org/2000/svg">
<g clip-path="url(#clip0_7_1451)">
<path fill-rule="evenodd" clip-rule="evenodd" d="M12 2L14.7778 4.55895L18.5267 4.41227L19.0344 8.18752L22 10.5208L20 13.7432L20.7944 17.4677L17.2222 18.6298L15.4733 22L12 20.5592L8.52667 22L6.77778 18.6298L3.20555 17.4677L4 13.7432L2 10.5208L4.96555 8.18752L5.47333 4.41227L9.22222 4.55895L12 2ZM12 3.52319L9.96778 5.39501L9.63222 5.70417L9.17889 5.68724L6.43667 5.58005L6.06555 8.33984L6.00445 8.7968L5.64555 9.07774L3.47778 10.7848L4.94 13.143L5.18222 13.5311L5.08555 13.9824L4.50555 16.705L7.11778 17.5557L7.55 17.6967L7.76222 18.104L9.04 20.5682L11.58 19.5155L12 19.3406L12.42 19.5155L14.96 20.5682L16.2389 18.104L16.45 17.6967L16.8822 17.5557L19.4944 16.705L18.9144 13.9824L18.8178 13.5311L19.06 13.143L20.5233 10.7848L18.3544 9.07774L17.9956 8.7968L17.9344 8.33984L17.5622 5.58005L14.8222 5.68724L14.3678 5.70417L14.0322 5.39501L12 3.52319ZM15.5527 10.0124L16.2249 10.9117L10.3749 15.4203L7.71822 12.7226L8.50378 11.9249L10.4749 13.9264L15.5527 10.0124Z" fill="#FAB12F"/>
</g>
<defs>
<clipPath id="clip0_7_1451">
<rect width="24" height="24" fill="white"/>
</clipPath>
</defs>
</svg>
