<svg width="20" height="18" viewBox="0 0 20 18" fill="none" xmlns="http://www.w3.org/2000/svg">
<path d="M11.0693 2.23535C12.1487 1.15602 13.6858 0.663294 15.1963 0.915039V0.914062C17.4779 1.29498 19.1504 3.26905 19.1504 5.58398V5.81055C19.1504 7.19669 18.5755 8.52186 17.5615 9.46582L17.5605 9.4668L10.502 16.0566C10.3668 16.1827 10.1875 16.2539 10 16.2539C9.81248 16.2539 9.63317 16.1827 9.49805 16.0566L2.43945 9.4668L2.43848 9.46582L2.25391 9.28418C1.35523 8.35572 0.849619 7.11009 0.849609 5.81055V5.58398C0.849609 3.26905 2.52215 1.29498 4.80371 0.914062V0.915039C6.31418 0.663294 7.85133 1.15602 8.93066 2.23535L9.39941 2.7041L10 3.30566L10.6006 2.7041L11.0693 2.23535Z" stroke="#4B5563" stroke-width="1.7"/>
</svg>
