<svg width="5" height="19" viewBox="0 0 5 19" fill="none" xmlns="http://www.w3.org/2000/svg">
<path d="M2.25 10.25C2.80228 10.25 3.25 9.80228 3.25 9.25C3.25 8.69772 2.80228 8.25 2.25 8.25C1.69772 8.25 1.25 8.69772 1.25 9.25C1.25 9.80228 1.69772 10.25 2.25 10.25Z" stroke="#4B5563" stroke-width="2.5" stroke-linecap="round" stroke-linejoin="round"/>
<path d="M2.25 3.25C2.80228 3.25 3.25 2.80228 3.25 2.25C3.25 1.69772 2.80228 1.25 2.25 1.25C1.69772 1.25 1.25 1.69772 1.25 2.25C1.25 2.80228 1.69772 3.25 2.25 3.25Z" stroke="#4B5563" stroke-width="2.5" stroke-linecap="round" stroke-linejoin="round"/>
<path d="M2.25 17.25C2.80228 17.25 3.25 16.8023 3.25 16.25C3.25 15.6977 2.80228 15.25 2.25 15.25C1.69772 15.25 1.25 15.6977 1.25 16.25C1.25 16.8023 1.69772 17.25 2.25 17.25Z" stroke="#4B5563" stroke-width="2.5" stroke-linecap="round" stroke-linejoin="round"/>
</svg>
