<svg width="12" height="12" viewBox="0 0 12 12" fill="none" xmlns="http://www.w3.org/2000/svg">
<g clip-path="url(#clip0_12_1384)">
<path d="M3.75 0C3.19453 0 2.70937 0.302344 2.45156 0.75H1.125C0.503906 0.75 0 1.25391 0 1.875V9.375C0 9.99609 0.503906 10.5 1.125 10.5H4.5V4.125C4.5 3.08906 5.33906 2.25 6.375 2.25H7.5V1.875C7.5 1.25391 6.99609 0.75 6.375 0.75H5.04844C4.79062 0.302344 4.30547 0 3.75 0ZM6.375 3C5.75391 3 5.25 3.50391 5.25 4.125V10.5V10.875C5.25 11.4961 5.75391 12 6.375 12H10.875C11.4961 12 12 11.4961 12 10.875V5.71641C12 5.41875 11.8805 5.13281 11.6695 4.92188L10.0781 3.33047C9.86719 3.11953 9.58125 3 9.28359 3H7.5H6.375ZM3.75 0.9375C3.89918 0.9375 4.04226 0.996763 4.14775 1.10225C4.25324 1.20774 4.3125 1.35082 4.3125 1.5C4.3125 1.64918 4.25324 1.79226 4.14775 1.89775C4.04226 2.00324 3.89918 2.0625 3.75 2.0625C3.60082 2.0625 3.45774 2.00324 3.35225 1.89775C3.24676 1.79226 3.1875 1.64918 3.1875 1.5C3.1875 1.35082 3.24676 1.20774 3.35225 1.10225C3.45774 0.996763 3.60082 0.9375 3.75 0.9375Z" fill="#4B5563"/>
</g>
<defs>
<clipPath id="clip0_12_1384">
<rect width="12" height="12" fill="white"/>
</clipPath>
</defs>
</svg>
