<svg width="12" height="12" viewBox="0 0 12 12" fill="none" xmlns="http://www.w3.org/2000/svg">
<path d="M2.46328 4.74854C2.64375 4.2376 2.93672 3.75713 3.34922 3.34697C4.81406 1.88213 7.18828 1.88213 8.65313 3.34697L9.05391 3.7501H7.875C7.46016 3.7501 7.125 4.08525 7.125 4.5001C7.125 4.91494 7.46016 5.2501 7.875 5.2501H10.8633H10.8727C11.2875 5.2501 11.6227 4.91494 11.6227 4.5001V1.5001C11.6227 1.08525 11.2875 0.750098 10.8727 0.750098C10.4578 0.750098 10.1227 1.08525 10.1227 1.5001V2.7001L9.7125 2.2876C7.66172 0.236816 4.33828 0.236816 2.2875 2.2876C1.71562 2.85947 1.30312 3.53213 1.05 4.25166C0.911719 4.64307 1.11797 5.06963 1.50703 5.20791C1.89609 5.34619 2.325 5.13994 2.46328 4.75088V4.74854ZM0.914062 6.78057C0.796875 6.81572 0.684375 6.879 0.592969 6.97275C0.499219 7.0665 0.435938 7.179 0.403125 7.30088C0.396094 7.329 0.389062 7.35947 0.384375 7.38994C0.377344 7.42978 0.375 7.46963 0.375 7.50947V10.5001C0.375 10.9149 0.710156 11.2501 1.125 11.2501C1.53984 11.2501 1.875 10.9149 1.875 10.5001V9.30244L2.2875 9.7126C4.33828 11.761 7.66172 11.761 9.71016 9.7126C10.282 9.14072 10.6969 8.46807 10.95 7.75088C11.0883 7.35947 10.882 6.93291 10.493 6.79463C10.1039 6.65635 9.675 6.8626 9.53672 7.25166C9.35625 7.7626 9.06328 8.24307 8.65078 8.65322C7.18594 10.1181 4.81172 10.1181 3.34688 8.65322L3.34453 8.65088L2.94375 8.2501H4.125C4.53984 8.2501 4.875 7.91494 4.875 7.5001C4.875 7.08525 4.53984 6.7501 4.125 6.7501H1.13438C1.09688 6.7501 1.05937 6.75244 1.02187 6.75713C0.984375 6.76182 0.949219 6.76885 0.914062 6.78057Z" fill="white"/>
</svg>
