<svg width="20" height="20" viewBox="0 0 20 20" fill="none" xmlns="http://www.w3.org/2000/svg">
<path d="M6.3898 11.3506L13.2198 14.999M13.2098 4.93397L6.3898 8.5823M18.7998 3.5498C18.7998 5.06859 17.4567 6.2998 15.7998 6.2998C14.143 6.2998 12.7998 5.06859 12.7998 3.5498C12.7998 2.03102 14.143 0.799805 15.7998 0.799805C17.4567 0.799805 18.7998 2.03102 18.7998 3.5498ZM6.7998 9.96647C6.7998 11.4853 5.45666 12.7165 3.7998 12.7165C2.14295 12.7165 0.799805 11.4853 0.799805 9.96647C0.799805 8.44769 2.14295 7.21647 3.7998 7.21647C5.45666 7.21647 6.7998 8.44769 6.7998 9.96647ZM18.7998 16.3831C18.7998 17.9019 17.4567 19.1331 15.7998 19.1331C14.143 19.1331 12.7998 17.9019 12.7998 16.3831C12.7998 14.8644 14.143 13.6331 15.7998 13.6331C17.4567 13.6331 18.7998 14.8644 18.7998 16.3831Z" stroke="#5A5A5A" stroke-width="1.6" stroke-linecap="round" stroke-linejoin="round"/>
</svg>
