<svg width="20" height="28" viewBox="0 0 20 28" fill="none" xmlns="http://www.w3.org/2000/svg">
<g clip-path="url(#clip0_12_722)">
<path d="M20 6.625C20 7.32812 19.4414 7.97656 18.5 8.5C17.3633 9.12891 15.668 9.57422 13.7227 9.70703C13.5781 9.63672 13.4336 9.57031 13.2812 9.51172C11.7422 8.86719 9.69531 8.5 7.5 8.5C7.17578 8.5 6.85938 8.50781 6.54297 8.52344L6.5 8.5C5.55859 7.97656 5 7.32812 5 6.625C5 4.89844 8.35938 3.5 12.5 3.5C16.6406 3.5 20 4.89844 20 6.625ZM6.27734 9.79297C6.67578 9.76563 7.08594 9.75 7.5 9.75C9.92969 9.75 12.0859 10.2305 13.457 10.9766C14.4258 11.5039 15 12.1602 15 12.875C15 13.0312 14.9727 13.1836 14.918 13.332C14.7383 13.8477 14.2539 14.3203 13.5508 14.7188C13.5469 14.7227 13.5391 14.7227 13.5352 14.7266C13.5234 14.7344 13.5117 14.7383 13.5 14.7461C12.1328 15.5039 9.95312 15.9961 7.5 15.9961C5.17188 15.9961 3.08984 15.5547 1.71094 14.8594C1.63672 14.8242 1.56641 14.7852 1.49609 14.7461C0.558594 14.2266 0 13.5781 0 12.875C0 11.5156 2.08594 10.3555 5 9.92969C5.41016 9.87109 5.83594 9.82422 6.27734 9.79297ZM16.25 12.875C16.25 12.0195 15.8359 11.3164 15.3086 10.7891C16.4141 10.6172 17.4258 10.3438 18.2852 9.98828C18.9219 9.72266 19.5156 9.39453 20 8.99219V10.375C20 11.1289 19.3555 11.8242 18.2891 12.3633C17.7188 12.6523 17.0234 12.8984 16.2422 13.0859C16.2461 13.0156 16.25 12.9492 16.25 12.8789V12.875ZM15 16.625C15 17.3281 14.4414 17.9766 13.5 18.5C13.4297 18.5391 13.3594 18.5742 13.2852 18.6133C11.9102 19.3086 9.82812 19.75 7.5 19.75C5.04688 19.75 2.86719 19.2578 1.5 18.5C0.558594 17.9766 0 17.3281 0 16.625V15.2422C0.488281 15.6445 1.07813 15.9727 1.71484 16.2383C3.25781 16.8828 5.30469 17.25 7.5 17.25C9.69531 17.25 11.7422 16.8828 13.2852 16.2383C13.5898 16.1133 13.8828 15.9688 14.1602 15.8125C14.3984 15.6797 14.6211 15.5312 14.832 15.375C14.8906 15.332 14.9453 15.2852 15 15.2422V15.375V15.5977V16.625ZM16.25 16.625V15.375V14.3633C16.9922 14.1992 17.6758 13.9922 18.2852 13.7383C18.9219 13.4727 19.5156 13.1445 20 12.7422V14.125C20 14.5352 19.8047 14.9453 19.418 15.332C18.7812 15.9688 17.6602 16.4922 16.2422 16.832C16.2461 16.7656 16.25 16.6953 16.25 16.625ZM7.5 21C9.69531 21 11.7422 20.6328 13.2852 19.9883C13.9219 19.7227 14.5156 19.3945 15 18.9922V20.375C15 22.1016 11.6406 23.5 7.5 23.5C3.35938 23.5 0 22.1016 0 20.375V18.9922C0.488281 19.3945 1.07813 19.7227 1.71484 19.9883C3.25781 20.6328 5.30469 21 7.5 21Z" fill="white"/>
</g>
<defs>
<clipPath id="clip0_12_722">
<path d="M0 3.5H20V23.5H0V3.5Z" fill="white"/>
</clipPath>
</defs>
</svg>
