<svg width="22" height="20" viewBox="0 0 22 20" fill="none" xmlns="http://www.w3.org/2000/svg">
<g clip-path="url(#clip0_305_230)">
<path d="M20.8829 10.1719C20.7454 10.1719 20.6251 10.125 20.522 10.0313L11.3954 1.6875C11.2923 1.59375 11.1548 1.53125 11.0001 1.53125C10.8626 1.53125 10.7251 1.57813 10.6048 1.6875L1.47822 10C1.37509 10.0938 1.25478 10.1406 1.11728 10.1406C0.979781 10.1406 0.859468 10.0938 0.773531 10.0156C0.670406 9.9375 0.618843 9.84375 0.618843 9.71875C0.601656 9.57813 0.670406 9.4375 0.773531 9.34375L9.84853 1.03125C10.1579 0.75 10.5532 0.59375 10.9829 0.59375C11.4126 0.59375 11.8079 0.75 12.1173 1.03125L21.2438 9.375C21.347 9.46875 21.3985 9.59375 21.3985 9.73438C21.3985 9.875 21.3126 10 21.2095 10.0781C21.1063 10.1406 20.986 10.1719 20.8829 10.1719Z" fill="#FAB12F"/>
<path d="M13.6985 19.5V18.8437H12.9767V17.6562C12.9767 16.6562 12.0829 15.8594 11.0001 15.8594C9.9001 15.8594 9.02354 16.6719 9.02354 17.6562V18.8437H8.30166V19.5H4.22822C3.35166 19.5 2.64697 18.8594 2.64697 18.0625V9.95312C2.64697 9.6875 2.87041 9.48438 3.1626 9.48438C3.45479 9.48438 3.67822 9.6875 3.67822 9.95312V18.0625C3.67822 18.3437 3.91885 18.5625 4.22822 18.5625H7.99229V17.6719C7.99229 16.1562 9.3501 14.9375 11.0001 14.9375C12.6501 14.9375 14.0079 16.1719 14.0079 17.6719V18.5625H17.772C18.0813 18.5625 18.322 18.3437 18.322 18.0625V9.95312C18.322 9.6875 18.5454 9.48438 18.8376 9.48438C19.1298 9.48438 19.3532 9.6875 19.3532 9.95312V18.0625C19.3532 18.8594 18.6485 19.5 17.772 19.5H13.6985Z" fill="#FAB12F"/>
<path d="M12.9766 19.5V18.5625H14.0078V19.5H12.9766ZM7.99219 19.5V18.5625H9.02344V19.5H7.99219Z" fill="#FAB12F"/>
</g>
<defs>
<clipPath id="clip0_305_230">
<rect width="22" height="20" fill="white"/>
</clipPath>
</defs>
</svg>
