<svg width="20" height="20" viewBox="0 0 20 20" fill="none" xmlns="http://www.w3.org/2000/svg">
<path d="M19.914 6.69446C19.8361 6.57969 19.7158 6.51242 19.5883 6.51242H14.9422L11.2009 0.206423C11.0736 -0.00811521 10.8177 -0.0645234 10.6293 0.0804035C10.4409 0.22533 10.3914 0.516669 10.5186 0.731207L13.9486 6.51242H5.98078L9.41065 0.731207C9.53792 0.516669 9.48838 0.22533 9.29998 0.0804035C9.11157 -0.0645234 8.85565 -0.00819333 8.72838 0.206423L4.98716 6.51242H0.411694C0.284284 6.51242 0.164009 6.57961 0.0859979 6.69446C0.00805581 6.80923 -0.0188397 6.95869 0.0132703 7.09916L2.87936 19.6492C2.92656 19.8558 3.09034 20 3.27778 20H16.7223C16.9098 20 17.0735 19.8558 17.1207 19.6492L19.9868 7.09916C20.0188 6.95877 19.992 6.80931 19.914 6.69446ZM17.3594 14.879H13.2525V11.6331H18.1006L17.3594 14.879ZM12.4291 14.879H7.57077V11.6331H12.4291V14.879ZM12.4291 15.8166V19.0625H7.57077V15.8166H12.4291ZM1.89946 11.6331H6.74751V14.879H2.64066L1.89946 11.6331ZM7.57084 10.6956V7.44996H12.4292V10.6956H7.57084ZM5.205 7.44996C5.20513 7.44996 5.20527 7.44996 5.20548 7.44996C5.20568 7.44996 5.20582 7.44996 5.20603 7.44996H6.74744V10.6956H1.68532L0.944116 7.44996H5.205ZM2.8548 15.8166H6.74744V19.0625H3.59607L2.8548 15.8166ZM16.404 19.0625H13.2525V15.8166H17.1452L16.404 19.0625ZM18.3147 10.6956H13.2525V7.44996H14.7233C14.7235 7.44996 14.7237 7.44996 14.7239 7.44996C14.724 7.44996 14.7242 7.44996 14.7244 7.44996H19.0559L18.3147 10.6956Z" fill="#A09CAB"/>
</svg>
